<?xml version="1.0" standalone="no"?>
<!DOCTYPE svg PUBLIC "-//W3C//DTD SVG 20010904//EN"
 "http://www.w3.org/TR/2001/REC-SVG-20010904/DTD/svg10.dtd">
<svg version="1.0" xmlns="http://www.w3.org/2000/svg"
 width="230.000000pt" height="191.000000pt" viewBox="0 0 230.000000 191.000000"
 preserveAspectRatio="xMidYMid meet">

<g transform="translate(0.000000,191.000000) scale(0.100000,-0.100000)"
fill="#000000" stroke="none">
<path d="M1916 1241 c-21 -92 -49 -144 -74 -139 -14 3 -17 16 -17 83 0 75 -1
80 -27 94 -15 9 -30 13 -33 9 -4 -3 -9 -48 -12 -100 -5 -82 -3 -99 15 -135 12
-23 26 -43 32 -45 7 -2 3 -30 -10 -78 -32 -117 -36 -150 -16 -150 35 0 62 44
86 140 18 77 29 102 56 130 43 45 74 117 81 187 5 47 3 58 -12 69 -39 29 -50
18 -69 -65z"/>
<path d="M1520 1249 c-100 -27 -131 -57 -95 -92 13 -14 10 -36 -26 -197 -23
-103 -38 -192 -35 -206 14 -56 122 -13 207 84 71 82 112 187 113 295 1 65 -1
70 -32 98 -35 31 -67 35 -132 18z m77 -77 c20 -12 33 -60 26 -94 -10 -57 -65
-148 -116 -194 -27 -24 -54 -44 -59 -44 -14 0 -2 59 37 190 40 135 67 170 112
142z"/>
<path d="M1180 1170 c-134 -37 -151 -50 -114 -91 15 -17 14 -31 -23 -194 -43
-190 -42 -217 7 -223 39 -4 129 56 182 122 60 75 94 147 109 232 24 141 -28
191 -161 154z m80 -75 c35 -42 -18 -179 -104 -273 -57 -61 -86 -80 -68 -44 5
9 17 51 27 92 41 176 54 210 88 225 41 18 42 18 57 0z"/>
<path d="M906 1118 c-3 -12 -13 -63 -22 -113 -27 -145 -92 -295 -129 -295 -23
0 -18 49 19 195 18 72 31 136 28 143 -5 13 -53 42 -71 42 -5 0 -19 -39 -30
-87 -70 -299 -68 -391 8 -408 67 -14 140 48 198 171 37 78 93 261 93 304 0 31
-23 55 -62 65 -23 6 -28 3 -32 -17z"/>
<path d="M485 1053 c-91 -20 -215 -71 -215 -88 0 -7 14 -18 31 -24 22 -8 29
-15 25 -28 -10 -35 -76 -360 -76 -376 0 -21 30 -37 69 -37 16 0 62 17 102 38
115 58 189 173 157 240 -11 23 -20 27 -62 30 l-48 3 45 28 c66 43 104 131 77
181 -8 16 -62 42 -79 39 -3 -1 -15 -3 -26 -6z m25 -98 c0 -37 -27 -73 -72 -96
-36 -18 -38 -18 -38 -2 0 67 40 123 87 123 18 0 23 -6 23 -25z m-40 -236 c0
-42 -69 -119 -107 -119 -18 0 14 103 38 123 31 25 69 23 69 -4z"/>
</g>
</svg>
